# xmcd CD database file
# Copyright (C) 1995 Ti Kan
#
# Track frame offsets:
#	150
#	22365
#	46820
#	61135
#	86280
#	113875
#	134588
#	164468
#	185698
#	207078
#	230505
#	245490
#
# Disc length: 3567 seconds
#
# Revision: 1
# Processed by: cddbd v1.4PL0 Copyright (c) Steve Scherf et al.
# Submitted via: NotifyCDPlayer(CDDB) 1.60beta5_freedb
#
DISCID=a60ded0c
DTITLE=B.B. King - Confessin' the Blues
DYEAR=1900
DGENRE=
TTITLE0=Confessin' the Blues
TTITLE1=The thrill is gone
TTITLE2=Aske me no question
TTITLE3=So excited
TTITLE4=You're still my woman
TTITLE5=No good
TTITLE6=Cryin' won't help you now
TTITLE7=What happened
TTITLE8=Until I'm dead and cold
TTITLE9=King's Special
TTITLE10=Key to my Kingdom
TTITLE11=Chains and things
EXTD=
EXTT0=
EXTT1=
EXTT2=
EXTT3=
EXTT4=
EXTT5=
EXTT6=
EXTT7=
EXTT8=
EXTT9=
EXTT10=
EXTT11=
PLAYORDER=
